<?xml version="1.0" encoding="utf-8"?>
<!-- Generator: Adobe Illustrator 26.3.0, SVG Export Plug-In . SVG Version: 6.00 Build 0)  -->
<svg version="1.1" id="Layer_1" xmlns="http://www.w3.org/2000/svg" xmlns:xlink="http://www.w3.org/1999/xlink" x="0px" y="0px"
	 viewBox="0 0 200 200" style="enable-background:new 0 0 200 200;" xml:space="preserve">
<style type="text/css">
	.st0{fill:#FFFFFF;}
	.st1{fill:#070405;}
	.st2{fill:#F6A118;}
</style>
<circle class="st0" cx="100" cy="100" r="98.5"/>
<g>
	<g>
		<path class="st1" d="M69,61.7c-1.5,0-2.7-0.2-3.7-0.6c-1-0.4-1.8-1-2.3-1.7c-0.6-0.8-1-1.7-1.2-2.8c-0.2-1.1-0.4-2.4-0.4-3.8V50
			h5.1v3.1c0,1.6,0.2,2.8,0.5,3.5s1,1.1,1.9,1.1c0.6,0,1.1-0.1,1.5-0.4c0.3-0.3,0.6-0.7,0.7-1.2c0.1-0.6,0.2-1.3,0.2-2.2
			c0-1.1-0.3-2.2-0.8-3.1c-0.6-0.9-1.4-1.9-2.5-2.9l-2.6-2.3c-0.7-0.6-1.4-1.3-2-2.1c-0.6-0.7-1.1-1.5-1.4-2.4
			c-0.3-0.9-0.5-1.9-0.5-3c0-1.6,0.2-3,0.7-4.1c0.5-1.1,1.2-1.9,2.3-2.5c1.1-0.6,2.6-0.9,4.5-0.9c1.4,0,2.6,0.2,3.5,0.6
			c0.9,0.4,1.6,0.9,2.2,1.6c0.5,0.7,0.9,1.6,1.1,2.6c0.2,1,0.3,2.2,0.3,3.5v1.9h-5v-2.2c0-0.9-0.1-1.7-0.2-2.3s-0.3-1.1-0.6-1.4
			c-0.3-0.3-0.8-0.5-1.4-0.5c-0.6,0-1,0.1-1.4,0.3c-0.4,0.2-0.6,0.5-0.8,1c-0.2,0.4-0.2,1-0.2,1.7c0,0.6,0.1,1.2,0.3,1.6
			c0.2,0.5,0.5,0.9,0.9,1.3c0.4,0.4,0.9,0.9,1.5,1.4l2.9,2.7c1.4,1.3,2.5,2.6,3.3,4c0.8,1.4,1.2,3,1.2,4.7c0,1.8-0.2,3.4-0.7,4.6
			c-0.5,1.2-1.2,2.2-2.3,2.8C72.3,61.4,70.9,61.7,69,61.7z"/>
		<path class="st1" d="M77.1,61.3l5.1-30.5h7.1l5.4,30.5h-5l-0.8-5.4h-5.7l-0.8,5.4H77.1z M83.6,52.2h4.6l-2.4-15.3h-0.1L83.6,52.2z
			"/>
		<path class="st1" d="M96.9,61.3V30.8h5.4v26.5h6.8v3.9H96.9z"/>
		<path class="st1" d="M112.3,61.3V34.9h-4.2v-4h13.5v4h-4v26.5H112.3z"/>
		<path class="st1" d="M120.7,61.3l5.1-30.5h7.1l5.4,30.5h-5l-0.8-5.4h-5.7l-0.8,5.4H120.7z M127.2,52.2h4.6l-2.4-15.3h-0.1
			L127.2,52.2z"/>
	</g>
	<path class="st2" d="M60.5,91.7c0-4.3,0.6-7.9,1.7-10.7c1.1-2.9,2.8-5.2,5-6.8c2.2-1.7,4.8-2.9,8-3.6s6.7-1.1,10.7-1.1h28.8
		c4.8,0,9.1,0.7,12.8,2.2c3.7,1.4,6.6,3.8,8.7,7.1c2.1,3.3,3.2,7.6,3.2,13c0,4.1-0.6,7.6-1.8,10.4c-1.2,2.8-2.9,5.1-5.1,6.8
		c-2.2,1.7-4.8,3-7.8,3.8c-3,0.8-6.3,1.2-10,1.2H85.9c-3.9,0-7.5-0.3-10.6-1s-5.8-1.9-8-3.6c-2.2-1.7-3.9-3.9-5.1-6.8
		C61.1,99.7,60.5,96.1,60.5,91.7z M71.5,91.7c0,1.8,0.5,3.1,1.4,4c0.9,0.9,2.3,1.5,3.9,1.8s3.6,0.5,5.8,0.5h34.5
		c2.3,0,4.3-0.2,6-0.5c1.7-0.4,3-1,3.9-1.9c0.9-0.9,1.4-2.2,1.4-3.9c0-1.8-0.5-3.1-1.4-4.1c-0.9-0.9-2.2-1.6-3.9-1.9
		c-1.7-0.3-3.7-0.5-6-0.5H82.7c-2.2,0-4.1,0.2-5.8,0.5c-1.7,0.3-3,1-3.9,1.9C72,88.6,71.5,89.9,71.5,91.7z"/>
	<path class="st2" d="M61.5,121.7h76.7v15.7h-34.7l35,15.2v16l-37.9-17.1l-39.1,18.2v-16l36.6-16.1H61.5V121.7z"/>
</g>
</svg>
