<?xml version="1.0" encoding="UTF-8"?>
<svg id="uuid-412a961a-f33f-4b46-b453-8e115ee0c9e0" data-name="Layer 2" xmlns="http://www.w3.org/2000/svg" width="47.1" height="83" viewBox="0 0 47.1 83">
  <defs>
    <style>
      .uuid-93767305-13f3-404d-bba1-79fe117b74b0 {
        fill: #fff;
      }
    </style>
  </defs>
  <g id="uuid-818358df-3bff-4b3e-a3c2-1ab3fe582012" data-name="contacto">
    <g>
      <g>
        <path d="M5,18.6c-.9,0-1.6-.1-2.2-.4-.6-.2-1.1-.6-1.4-1s-.6-1-.7-1.7c-.1-.7-.2-1.4-.2-2.2v-1.6H3.6v1.8c0,1,0,1.7,.3,2.1s.6,.6,1.1,.6,.7,0,.9-.2,.3-.4,.4-.7c0-.3,.1-.8,.1-1.3s-.2-1.3-.5-1.9c-.3-.6-.8-1.2-1.5-1.8l-1.6-1.4c-.4-.4-.8-.8-1.2-1.2-.3-.4-.6-.9-.8-1.5-.2-.5-.3-1.1-.3-1.8,0-1,.1-1.8,.4-2.4,.3-.7,.7-1.2,1.4-1.5,.7-.3,1.5-.5,2.7-.5s1.6,.1,2.1,.3c.6,.2,1,.6,1.3,1,.3,.4,.5,1,.7,1.6s.2,1.3,.2,2.1v1.1h-3v-1.3c0-.6,0-1-.1-1.4s-.2-.6-.4-.8c-.2-.2-.5-.3-.8-.3s-.6,0-.8,.2c-.2,.1-.4,.3-.5,.6,0,.3-.1,.6-.1,1s0,.7,.2,1c.1,.3,.3,.5,.5,.8,.2,.3,.5,.5,.9,.9l1.7,1.6c.8,.8,1.5,1.6,2,2.4,.5,.8,.7,1.8,.7,2.8s-.1,2-.4,2.7c-.3,.7-.7,1.3-1.4,1.7-.6,.4-1.5,.6-2.6,.6Z"/>
        <path d="M9.9,18.4L12.9,.2h4.3l3.2,18.2h-3l-.5-3.2h-3.4l-.5,3.2h-3.1Zm3.9-5.5h2.8l-1.4-9.1h0l-1.3,9.1Z"/>
        <path d="M21.7,18.4V.2h3.2v15.8h4.1v2.4h-7.3Z"/>
        <path d="M30.9,18.4V2.6h-2.5V.2h8.1V2.6h-2.4v15.8h-3.2Z"/>
        <path d="M35.9,18.4L38.9,.2h4.3l3.2,18.2h-3l-.5-3.2h-3.4l-.5,3.2h-3.1Zm3.9-5.5h2.8l-1.4-9.1h0l-1.3,9.1Z"/>
      </g>
      <path class="uuid-93767305-13f3-404d-bba1-79fe117b74b0" d="M0,36.6c0-2.6,.3-4.7,1-6.4,.7-1.7,1.7-3.1,3-4.1,1.3-1,2.9-1.7,4.8-2.2,1.9-.4,4-.7,6.4-.7h17.2c2.9,0,5.4,.4,7.7,1.3,2.2,.9,4,2.3,5.2,4.2,1.3,2,1.9,4.6,1.9,7.8s-.4,4.5-1.1,6.2c-.7,1.7-1.7,3-3.1,4.1-1.3,1-2.9,1.8-4.7,2.2-1.8,.5-3.8,.7-6,.7H15.2c-2.4,0-4.5-.2-6.3-.6-1.9-.4-3.5-1.1-4.8-2.1-1.3-1-2.3-2.4-3-4.1-.7-1.7-1-3.8-1-6.4Zm6.6,0c0,1.1,.3,1.9,.8,2.4,.6,.5,1.3,.9,2.3,1.1s2.2,.3,3.5,.3h20.6c1.4,0,2.6-.1,3.6-.3,1-.2,1.8-.6,2.3-1.1,.6-.5,.8-1.3,.8-2.3s-.3-1.9-.8-2.4c-.6-.6-1.3-.9-2.3-1.1-1-.2-2.2-.3-3.6-.3H13.2c-1.3,0-2.5,.1-3.5,.3-1,.2-1.8,.6-2.3,1.1-.6,.6-.8,1.4-.8,2.4Z"/>
      <path class="uuid-93767305-13f3-404d-bba1-79fe117b74b0" d="M.6,54.4H46.4v9.4H25.6l20.9,9.1v9.5l-22.6-10.2L.6,83v-9.6l21.9-9.6H.6v-9.4Z"/>
    </g>
  </g>
</svg>