<?xml version="1.0" encoding="UTF-8"?>
<svg id="uuid-09dc54e0-2f46-4e93-8086-29305725af6c" data-name="Layer 2" xmlns="http://www.w3.org/2000/svg" width="23" height="23" viewBox="0 0 23 23">
  <defs>
    <style>
      .uuid-5cec0a84-c8b5-4aff-9d01-a629a89f0e84 {
        fill: #fff;
      }
    </style>
  </defs>
  <g id="uuid-f5de8c21-e5b2-4a03-be6d-9309e0edecd2" data-name="menu">
    <path class="uuid-5cec0a84-c8b5-4aff-9d01-a629a89f0e84" d="M15.3,13.9l7.7,7.7-1.4,1.4-7.6-7.7c-2.3,1.7-4.7,2.2-7.4,1.6-2.1-.5-3.7-1.7-4.9-3.5C-.9,9.9-.4,5.1,2.8,2.2c3.2-2.9,8-3,11.3-.2,3.5,2.9,4.1,8.1,1.2,11.8Zm-6.8,1.2c3.6,0,6.6-2.9,6.6-6.5,0-3.6-2.9-6.5-6.5-6.6-3.6,0-6.6,2.9-6.6,6.5,0,3.7,2.9,6.6,6.5,6.6Z"/>
  </g>
</svg>